<?xml version="1.0" encoding="UTF-8" standalone="no"?>
<svg xmlns="http://www.w3.org/2000/svg" xmlns:xlink="http://www.w3.org/1999/xlink" width="800" height="500" viewBox="0 0 800 500">
  <style>
    .box { fill: #f5f5f5; stroke: #4285F4; stroke-width: 2; }
    .arrow { stroke: #4285F4; stroke-width: 2; marker-end: url(#arrowhead); }
    .text { font-family: Arial, sans-serif; font-size: 14px; fill: #333; }
    .title { font-family: Arial, sans-serif; font-size: 16px; font-weight: bold; fill: #4285F4; }
    .gcp { fill: #4285F4; }
  </style>
  
  <defs>
    <marker id="arrowhead" markerWidth="10" markerHeight="7" refX="9" refY="3.5" orient="auto">
      <polygon points="0 0, 10 3.5, 0 7" fill="#4285F4" />
    </marker>
  </defs>
  
  <!-- Title -->
  <text x="400" y="30" text-anchor="middle" class="title" font-size="20">GCP Loan Data Processing Pipeline Architecture</text>
  
  <!-- Data Generation -->
  <rect x="50" y="80" width="150" height="80" rx="5" ry="5" class="box" />
  <text x="125" y="110" text-anchor="middle" class="title">Data Generation</text>
  <text x="125" y="130" text-anchor="middle" class="text">generate_loan_data.py</text>
  <text x="125" y="150" text-anchor="middle" class="text">Synthetic Loan Data</text>
  
  <!-- CSV File -->
  <rect x="50" y="220" width="150" height="60" rx="5" ry="5" class="box" />
  <text x="125" y="250" text-anchor="middle" class="title">CSV File</text>
  <text x="125" y="270" text-anchor="middle" class="text">loans.csv</text>
  
  <!-- Apache Beam Pipeline -->
  <rect x="300" y="200" width="200" height="100" rx="5" ry="5" class="box" />
  <text x="400" y="230" text-anchor="middle" class="title">Apache Beam Pipeline</text>
  <text x="400" y="250" text-anchor="middle" class="text">loan_pipeline.py</text>
  <text x="400" y="270" text-anchor="middle" class="text">- Calculate Repayments</text>
  <text x="400" y="290" text-anchor="middle" class="text">- Risk Categorization</text>
  
  <!-- Google Cloud Dataflow -->
  <rect x="300" y="80" width="200" height="80" rx="5" ry="5" class="box" />
  <text x="400" y="110" text-anchor="middle" class="title">Google Cloud Dataflow</text>
  <text x="400" y="130" text-anchor="middle" class="text">Managed Beam Execution</text>
  <text x="400" y="150" text-anchor="middle" class="text">Scalable Processing</text>
  
  <!-- BigQuery -->
  <rect x="600" y="200" width="150" height="100" rx="5" ry="5" class="box" />
  <text x="675" y="230" text-anchor="middle" class="title">BigQuery</text>
  <text x="675" y="250" text-anchor="middle" class="text">loan_data.customer_loans</text>
  <text x="675" y="270" text-anchor="middle" class="text">- Aggregated Data</text>
  <text x="675" y="290" text-anchor="middle" class="text">- Risk Categories</text>
  
  <!-- Data Analysis -->
  <rect x="600" y="80" width="150" height="80" rx="5" ry="5" class="box" />
  <text x="675" y="110" text-anchor="middle" class="title">Data Analysis</text>
  <text x="675" y="130" text-anchor="middle" class="text">SQL Queries</text>
  <text x="675" y="150" text-anchor="middle" class="text">Insights & Reporting</text>
  
  <!-- GCP Service Account -->
  <rect x="300" y="350" width="200" height="60" rx="5" ry="5" class="box" />
  <text x="400" y="380" text-anchor="middle" class="title">GCP Service Account</text>
  <text x="400" y="400" text-anchor="middle" class="text">Authentication & Permissions</text>
  
  <!-- Arrows -->
  <line x1="125" y1="160" x2="125" y2="220" class="arrow" />
  <line x1="200" y1="250" x2="300" y2="250" class="arrow" />
  <line x1="400" y1="160" x2="400" y2="200" class="arrow" />
  <line x1="500" y1="250" x2="600" y2="250" class="arrow" />
  <line x1="675" y1="200" x2="675" y2="160" class="arrow" />
  <line x1="400" y1="300" x2="400" y2="350" class="arrow" />
  
  <!-- GCP Logo -->
  <g transform="translate(20, 450) scale(0.5)">
    <path d="M32.5,22.5h-15v15h15V22.5z M32.5,42.5h-15v15h15V42.5z M52.5,42.5h-15v15h15V42.5z M52.5,22.5h-15v15h15V22.5z M52.5,2.5h-15v15h15V2.5z M32.5,2.5h-15v15h15V2.5z" class="gcp" />
  </g>
  <text x="70" y="465" class="text">Powered by Google Cloud Platform</text>
</svg>
